<?xml version="1.0" encoding="UTF-8"?> <svg xmlns="http://www.w3.org/2000/svg" id="Layer_1" data-name="Layer 1" viewBox="0 0 390 168"><defs><style>.cls-1{fill:#fff9fe;}</style></defs><path class="cls-1" d="M78.65,35.23V69.77L60.74,66v99.64H10.47V66H0V35.23H10.24C10.24,8.87,29.55,0,54.45,0a122.8,122.8,0,0,1,24,2.33v23.1a67.56,67.56,0,0,0-10.24-.93c-7.91,0-12.8,2.8-12.8,10.73Z"></path><path class="cls-1" d="M86.79,2.33h50.26V165.67H86.79Z"></path><path class="cls-1" d="M224.09,33.83h50.49V165.67H224.32l12.1-64.17h-3.49c-8.84,53.67-20.71,66.5-46.31,66.5-24.67,0-40.49-14.7-40.49-47.6V33.83h50.5v63.7c0,13.77,4,20.3,13.26,20.3,9.54,0,14.2-7.23,14.2-24.5Z"></path><path class="cls-1" d="M390,118.3v47.37H284.35c-1.63-5.84-2.79-16.57-2.79-24.5,0-18.2,9.54-33.14,26.06-45.5,10.71-8.17,26.3-17,40.49-23.34l-.23-2.56c-17.22,6.3-46.31,11-64.93,11V33.83H389.3V81.9c-30.48,17.5-52.59,32.67-63.53,52H329c10.94-12.36,26.06-17.5,41.89-17.5A96.28,96.28,0,0,1,390,118.3Z"></path></svg> 