<?xml version="1.0" encoding="UTF-8"?> <svg xmlns="http://www.w3.org/2000/svg" width="86" height="40" viewBox="0 0 86 40" fill="none"><path d="M19.7941 5.14706H66.2059C74.2452 5.14706 80.8529 11.7466 80.8529 20C80.8529 28.2534 74.2452 34.8529 66.2059 34.8529H19.7941C11.7548 34.8529 5.14706 28.2534 5.14706 20C5.14706 11.7466 11.7548 5.14706 19.7941 5.14706Z" fill="#170100" stroke="#170100" stroke-width="10.2941"></path><path d="M29.5805 20.2114C29.5586 19.4315 29.7298 18.6583 30.0787 17.9605C30.4276 17.2627 30.9435 16.6619 31.5805 16.2114C31.1586 15.5632 30.5812 15.031 29.9009 14.6633C29.2206 14.2955 28.4591 14.104 27.6857 14.1061C26.1068 14.1061 24.4226 15.0535 23.5805 15.0535C22.7384 15.0535 21.4752 14.0009 20.1068 14.0009C19.222 14.0323 18.3603 14.2908 17.6044 14.7517C16.8485 15.2126 16.224 15.8603 15.791 16.6325C15.0367 18.3329 14.7464 20.2028 14.9498 22.0518C15.1532 23.9009 15.843 25.663 16.9489 27.1588C17.8962 28.4219 18.9489 29.8956 20.3173 29.8956C21.6857 29.8956 22.1068 29.0535 23.791 29.0535C25.4752 29.0535 25.8962 29.8956 27.2647 29.8956C28.6331 29.8956 29.6857 28.6325 30.5278 27.3693C31.2006 26.4498 31.7 25.4153 32.0015 24.3167C31.2638 23.916 30.6489 23.3224 30.2224 22.5993C29.796 21.8762 29.5741 21.0508 29.5805 20.2114ZM26.9489 12.3167C27.7584 11.3873 28.1737 10.1789 28.1068 8.94824C26.8929 9.05836 25.7653 9.62219 24.9489 10.5272C24.5462 10.9652 24.2361 11.48 24.0372 12.0407C23.8382 12.6014 23.7545 13.1965 23.791 13.7903C24.3969 13.8153 24.9999 13.6945 25.5494 13.438C26.0989 13.1816 26.5788 12.797 26.9489 12.3167Z" fill="#FFF9FE"></path><path fill-rule="evenodd" clip-rule="evenodd" d="M30.5278 27.3693C30.3038 27.7053 30.0649 28.0413 29.8092 28.3535C29.1034 29.2151 28.2691 29.8956 27.2647 29.8956C26.6159 29.8956 26.1801 29.7064 25.7217 29.5073C25.2131 29.2864 24.6768 29.0535 23.791 29.0535C23.1794 29.0535 22.7344 29.1646 22.3501 29.306C22.1778 29.3694 22.0177 29.4389 21.8603 29.5073C21.4018 29.7064 20.966 29.8956 20.3173 29.8956C18.9975 29.8956 17.9715 28.5249 17.0504 27.2943C17.0164 27.2489 16.9826 27.2037 16.9489 27.1588C16.1862 26.1271 15.6214 24.9688 15.2776 23.7427C15.1229 23.191 15.013 22.6256 14.9498 22.0518C14.7464 20.2028 15.0367 18.3329 15.791 16.6325C16.224 15.8603 16.8485 15.2126 17.6044 14.7517C18.2004 14.3883 18.8623 14.1507 19.5493 14.051C19.7336 14.0243 19.9197 14.0075 20.1068 14.0009C20.164 14.0009 20.2211 14.0027 20.278 14.0063C20.3702 14.012 20.4617 14.0221 20.5527 14.0361C21.1574 14.1287 21.7336 14.3883 22.2526 14.6221C22.7587 14.8501 23.2103 15.0535 23.5805 15.0535C23.6305 15.0535 23.6836 15.0502 23.7394 15.0439C23.8509 15.0313 23.9735 15.0069 24.1056 14.974C24.3768 14.9063 24.688 14.8024 25.0255 14.6897C25.3293 14.5882 25.6544 14.4797 25.9908 14.384C26.5402 14.2279 27.1197 14.1061 27.6857 14.1061C27.9878 14.1053 28.2881 14.134 28.5824 14.1912C28.7461 14.2231 28.908 14.2637 29.0673 14.313C29.1082 14.3257 29.149 14.3389 29.1896 14.3527C29.2451 14.3716 29.3004 14.3915 29.3553 14.4126C29.5418 14.484 29.7241 14.5677 29.9009 14.6633C30.0768 14.7583 30.2458 14.8644 30.407 14.9806C30.4867 15.038 30.5644 15.0979 30.6402 15.1602C30.9125 15.3842 31.1588 15.6388 31.3741 15.9195C31.4464 16.0139 31.5153 16.1113 31.5805 16.2114C31.5511 16.2322 31.522 16.2532 31.4932 16.2746C31.4616 16.2981 31.4303 16.3219 31.3993 16.3461C31.3777 16.363 31.3562 16.3801 31.3348 16.3974C30.8103 16.8221 30.3816 17.3547 30.0787 17.9605C29.8969 18.3241 29.7634 18.7081 29.6802 19.1029C29.6209 19.3845 29.5873 19.6716 29.5801 19.9606C29.5799 19.9674 29.5798 19.9742 29.5796 19.981C29.578 20.0577 29.5783 20.1345 29.5805 20.2114C29.5741 21.0508 29.796 21.8762 30.2224 22.5993C30.2244 22.6027 30.2263 22.606 30.2283 22.6093C30.6545 23.3279 31.2672 23.9179 32.0015 24.3167C31.7 25.4153 31.2006 26.4498 30.5278 27.3693ZM23.8282 12.8861C23.785 13.1847 23.7724 13.4877 23.791 13.7903C24.0509 13.801 24.3103 13.7849 24.5652 13.7428C24.9044 13.6867 25.2356 13.5845 25.5494 13.438C25.8615 13.2924 26.1511 13.1054 26.411 12.883C26.5995 12.7216 26.7723 12.5416 26.9267 12.3452C26.9318 12.3386 26.937 12.332 26.9422 12.3253C26.9444 12.3224 26.9466 12.3196 26.9489 12.3167C27.2466 11.9749 27.491 11.5954 27.6777 11.1909C27.6804 11.185 27.683 11.1792 27.6857 11.1733C27.7301 11.0762 27.7711 10.9777 27.8087 10.8779C28.0389 10.2679 28.1428 9.61133 28.1068 8.94824C27.9651 8.96109 27.8247 8.98012 27.6857 9.00515C27.681 9.00599 27.6763 9.00685 27.6716 9.00771C27.3339 9.06958 27.0052 9.16693 26.6909 9.29717C26.0315 9.57036 25.435 9.98829 24.9489 10.5272C24.9408 10.536 24.9327 10.5448 24.9247 10.5537C24.8885 10.5937 24.8531 10.6343 24.8185 10.6755C24.6945 10.8231 24.5805 10.9784 24.4771 11.1404C24.2973 11.4222 24.1495 11.7241 24.0372 12.0407C23.9396 12.3156 23.8698 12.5988 23.8282 12.8861Z" fill="#FFF9FE"></path><mask id="path-3-inside-1_66_1001" fill="white"><path d="M55.0547 11.6855V26.9487L63.16 20.1066L55.0547 11.6855Z"></path><path d="M63.7887 19.5797L66.4202 16.9481L56.6308 11.3691H55.5781L63.7887 19.5797Z"></path><path d="M70.1059 19.0514L67.0533 17.3672L64.3164 20.104L67.0533 22.8409L70.1059 21.0514C70.1059 21.0514 70.1059 21.0514 70.7375 20.5251C70.7734 20.2454 70.7337 19.9613 70.6227 19.7021C70.5116 19.443 70.3332 19.2183 70.1059 19.0514Z"></path><path d="M63.7923 21.0527L55.4766 29.2633H56.1081L66.3187 23.158L63.7923 21.0527Z"></path></mask><path d="M55.0547 11.6855V26.9487L63.16 20.1066L55.0547 11.6855Z" fill="#FFF9FE"></path><path d="M63.7887 19.5797L66.4202 16.9481L56.6308 11.3691H55.5781L63.7887 19.5797Z" fill="#222624"></path><path d="M70.1059 19.0514L67.0533 17.3672L64.3164 20.104L67.0533 22.8409L70.1059 21.0514C70.1059 21.0514 70.1059 21.0514 70.7375 20.5251C70.7734 20.2454 70.7337 19.9613 70.6227 19.7021C70.5116 19.443 70.3332 19.2183 70.1059 19.0514Z" fill="#222624"></path><path d="M63.7923 21.0527L55.4766 29.2633H56.1081L66.3187 23.158L63.7923 21.0527Z" fill="#222624"></path><path d="M55.0547 11.6855L62.4715 4.5469L44.7606 -13.854V11.6855H55.0547ZM55.0547 26.9487H44.7606V49.1101L61.6949 34.8148L55.0547 26.9487ZM63.16 20.1066L69.8002 27.9727L78.1967 20.8848L70.5767 12.9679L63.16 20.1066ZM63.7887 19.5797L56.5096 26.8587L63.7887 34.1377L71.0677 26.8587L63.7887 19.5797ZM66.4202 16.9481L73.6993 24.2271L83.2408 14.6856L71.5172 8.00438L66.4202 16.9481ZM56.6308 11.3691L61.7277 2.42543L59.3581 1.07502H56.6308V11.3691ZM55.5781 11.3691V1.07502H30.7259L48.2991 18.6482L55.5781 11.3691ZM70.1059 19.0514L76.1986 10.754L75.6618 10.3598L75.0787 10.0381L70.1059 19.0514ZM67.0533 17.3672L72.0261 8.35388L65.2481 4.61429L59.7742 10.0881L67.0533 17.3672ZM64.3164 20.104L57.0374 12.825L49.7583 20.104L57.0374 27.3831L64.3164 20.104ZM67.0533 22.8409L59.7742 30.1199L65.398 35.7437L72.2592 31.7216L67.0533 22.8409ZM70.1059 21.0514L75.3118 29.9321L68.4135 10.8973L70.1059 21.0514ZM70.7375 20.5251L77.3276 28.4332L80.4332 25.8452L80.9478 21.8355L70.7375 20.5251ZM63.7923 21.0527L70.3825 13.1446L63.2067 7.16475L56.5598 13.7275L63.7923 21.0527ZM55.4766 29.2633L48.244 21.938L30.3988 39.5574H55.4766V29.2633ZM56.1081 29.2633V39.5574H58.951L61.391 38.0984L56.1081 29.2633ZM66.3187 23.158L71.6015 31.9932L84.0609 24.5432L72.9088 15.2498L66.3187 23.158ZM44.7606 11.6855V26.9487H65.3488V11.6855H44.7606ZM61.6949 34.8148L69.8002 27.9727L56.5197 12.2405L48.4144 19.0826L61.6949 34.8148ZM70.5767 12.9679L62.4715 4.5469L47.6379 18.8242L55.7432 27.2452L70.5767 12.9679ZM71.0677 26.8587L73.6993 24.2271L59.1412 9.66905L56.5096 12.3006L71.0677 26.8587ZM71.5172 8.00438L61.7277 2.42543L51.5338 20.3128L61.3233 25.8918L71.5172 8.00438ZM56.6308 1.07502H55.5781V21.6633H56.6308V1.07502ZM48.2991 18.6482L56.5096 26.8587L71.0677 12.3006L62.8572 4.0901L48.2991 18.6482ZM75.0787 10.0381L72.0261 8.35388L62.0804 26.3805L65.133 28.0647L75.0787 10.0381ZM59.7742 10.0881L57.0374 12.825L71.5954 27.3831L74.3323 24.6462L59.7742 10.0881ZM57.0374 27.3831L59.7742 30.1199L74.3323 15.5618L71.5954 12.825L57.0374 27.3831ZM72.2592 31.7216L75.3118 29.9321L64.9 12.1707L61.8473 13.9602L72.2592 31.7216ZM70.1059 21.0514C68.4135 10.8973 79.4617 16.7574 76.7014 28.9551C76.7007 28.9556 76.6994 28.9568 76.6987 28.9573C76.698 28.9579 76.6975 28.9584 76.6974 28.9584C76.697 28.9587 76.6967 28.959 76.6967 28.959C76.6965 28.9592 76.6964 28.9593 76.6964 28.9593C76.6963 28.9593 76.6963 28.9594 76.6963 28.9593C76.6964 28.9592 76.6967 28.959 76.6973 28.9585C76.6985 28.9575 76.701 28.9554 76.7059 28.9513C76.7158 28.9431 76.7355 28.9267 76.775 28.8938C76.8539 28.828 77.0118 28.6964 77.3276 28.4332L64.1473 12.6169C63.8316 12.8801 63.6737 13.0117 63.5947 13.0775C63.5552 13.1103 63.5355 13.1268 63.5256 13.135C63.5207 13.1392 63.5182 13.1412 63.5169 13.1423C63.5163 13.1428 63.516 13.1431 63.5158 13.1432C63.5157 13.1433 63.5156 13.1434 63.5155 13.1435C63.5154 13.1435 63.5153 13.1436 63.5151 13.1438C63.5151 13.1438 63.5148 13.1441 63.5144 13.1444C63.5143 13.1444 63.5138 13.1449 63.5131 13.1455C63.5124 13.146 63.511 13.1472 63.5104 13.1477C60.7501 25.3454 71.7982 31.2055 70.1059 21.0514ZM80.9478 21.8355C81.2177 19.7327 80.9196 17.5959 80.0844 15.6471L61.1609 23.7572C60.5478 22.3267 60.329 20.7582 60.5271 19.2147L80.9478 21.8355ZM80.0844 15.6471C79.2493 13.6983 77.9075 12.0088 76.1986 10.754L64.0132 27.3488C62.7588 26.4278 61.7739 25.1876 61.1609 23.7572L80.0844 15.6471ZM56.5598 13.7275L48.244 21.938L62.7091 36.5885L71.0249 28.378L56.5598 13.7275ZM55.4766 39.5574H56.1081V18.9691H55.4766V39.5574ZM61.391 38.0984L71.6015 31.9932L61.0358 14.3228L50.8253 20.4281L61.391 38.0984ZM72.9088 15.2498L70.3825 13.1446L57.2022 28.9609L59.7285 31.0662L72.9088 15.2498Z" fill="#FFF9FE" mask="url(#path-3-inside-1_66_1001)"></path><line x1="44.5" y1="9.5" x2="44.5" y2="29.5" stroke="#FFF9FE" stroke-linecap="round"></line></svg> 