<?xml version="1.0" encoding="UTF-8"?> <svg xmlns="http://www.w3.org/2000/svg" width="24" height="24" viewBox="0 0 24 24" fill="none"><path fill-rule="evenodd" clip-rule="evenodd" d="M7.5 5V6.70404C4.80989 8.26018 3 11.1687 3 14.5C3 19.4706 7.02944 23.5 12 23.5C16.9706 23.5 21 19.4706 21 14.5C21 11.1687 19.1901 8.26018 16.5 6.70404V5C16.5 2.51472 14.4853 0.5 12 0.5C9.51472 0.5 7.5 2.51472 7.5 5ZM14.95 5V5.99461C14.0258 5.67412 13.0332 5.5 12 5.5C10.9668 5.5 9.97417 5.67412 9.05 5.99461V5C9.05 3.37076 10.3708 2.05 12 2.05C13.6292 2.05 14.95 3.37076 14.95 5ZM9.38208 15.367L8.95928 15.7898C8.97564 15.8164 8.99054 15.8442 9.00381 15.8733C9.28321 16.4859 9.71573 16.9956 10.246 17.3492C10.7758 17.7024 11.3835 17.8869 12 17.8869C12.6165 17.8869 13.2242 17.7024 13.754 17.3492C14.2843 16.9956 14.7168 16.4859 14.9962 15.8733C15.0095 15.8442 15.0244 15.8164 15.0407 15.7898L14.6179 15.367L15.6786 14.3064L17.5567 16.1845L16.4961 17.2452L16.1534 16.9025C15.7668 17.5845 15.2318 18.1668 14.586 18.5973C13.8147 19.1114 12.9185 19.3869 12 19.3869C11.0815 19.3869 10.1853 19.1114 9.41399 18.5973C8.76825 18.1668 8.2332 17.5845 7.84658 16.9025L7.50396 17.2452L6.4433 16.1845L8.32142 14.3064L9.38208 15.367Z" fill="black"></path></svg> 