<?xml version="1.0" encoding="UTF-8"?> <svg xmlns="http://www.w3.org/2000/svg" width="24" height="24" viewBox="0 0 24 24" fill="none"><path d="M10.3754 0.100098C10.3961 0.101817 10.4169 0.102694 10.4379 0.102694H10.7589C11.0509 0.153494 11.3697 0.319437 11.7079 0.650676C12.1252 1.05928 12.5326 1.68475 12.8883 2.5133C13.5986 4.16795 14.0464 6.50073 14.027 9.11191C14.0076 11.7218 13.5252 14.0474 12.7903 15.6917C12.4223 16.5151 12.0056 17.1349 11.5822 17.5378C11.1621 17.9375 10.7747 18.0901 10.4323 18.0876C10.0898 18.0851 9.70458 17.9269 9.29052 17.5213C8.87322 17.1125 8.46581 16.4871 8.11011 15.6587C7.39975 14.0044 6.95199 11.6722 6.97138 9.06105C6.99078 6.4499 7.47319 4.12497 8.20809 2.48131C8.57607 1.65829 8.99276 1.03878 9.41617 0.635926C9.75991 0.308877 10.0819 0.146987 10.3754 0.100098Z" fill="#170100"></path><path d="M13.1627 0.102694H14.1079C14.448 0.102694 14.8307 0.257802 15.2433 0.661837C15.6594 1.06929 16.0659 1.69474 16.421 2.52439C17.13 4.18109 17.5767 6.51789 17.5585 9.12959C17.5403 11.7398 17.0544 14.0638 16.3172 15.7066C15.948 16.5292 15.5304 17.1485 15.1069 17.5511C14.6863 17.9509 14.3001 18.1026 13.9613 18.1001H13.034C13.451 17.5906 13.8161 16.9684 14.1276 16.2716C14.9602 14.4086 15.4676 11.8806 15.4881 9.12244C15.5086 6.3631 15.0389 3.82753 14.2341 1.95279C13.9318 1.24875 13.5743 0.619179 13.1627 0.102694Z" fill="#170100"></path><path d="M3.34022 18.6707L2.68544 19.0396L1.94922 17.7327L4.53585 16.2755L5.27207 17.5824L4.64713 17.9345C5.35164 19.1994 6.36556 20.2684 7.59719 21.0395C8.96529 21.8959 10.5468 22.3501 12.1609 22.3501C13.775 22.3501 15.3565 21.8959 16.7246 21.0395C17.9537 20.27 18.966 19.2037 19.6703 17.9422L19.0317 17.5824L19.7679 16.2755L22.3545 17.7327L21.6183 19.0396L20.9772 18.6784C20.1502 20.1578 18.9624 21.4082 17.5205 22.3109C15.9138 23.3167 14.0565 23.8501 12.1609 23.8501C10.2653 23.8501 8.40796 23.3167 6.80125 22.3109C5.35687 21.4067 4.16745 20.1535 3.34022 18.6707Z" fill="#170100"></path></svg> 